<?xml version="1.0" standalone="no"?>
<!DOCTYPE svg PUBLIC "-//W3C//DTD SVG 20010904//EN"
 "http://www.w3.org/TR/2001/REC-SVG-20010904/DTD/svg10.dtd">
<svg version="1.0" xmlns="http://www.w3.org/2000/svg"
 width="140.000000pt" height="150.000000pt" viewBox="0 0 140.000000 150.000000"
 preserveAspectRatio="xMidYMid meet">

<g transform="translate(0.000000,150.000000) scale(0.100000,-0.100000)"
fill="#000000" stroke="none">
<path d="M522 1150 c-77 -6 -94 -23 -90 -89 2 -34 9 -48 30 -64 26 -19 40 -20
251 -18 237 3 294 9 314 37 19 26 16 88 -6 115 -19 24 -21 24 -228 24 -114 0
-237 -2 -271 -5z m78 -56 c11 -12 10 -18 -3 -31 -8 -9 -23 -13 -31 -10 -19 8
-21 43 -3 50 20 9 24 8 37 -9z m315 -9 c0 -22 -31 -33 -47 -17 -17 17 -1 44
24 40 15 -2 23 -10 23 -23z m-211 -37 c19 -13 49 -9 70 10 20 17 20 17 5 -8
-9 -14 -26 -26 -38 -28 -26 -4 -61 24 -60 47 0 14 1 14 6 1 3 -8 11 -18 17
-22z"/>
<path d="M568 693 c7 -3 16 -2 19 1 4 3 -2 6 -13 5 -11 0 -14 -3 -6 -6z"/>
<path d="M685 607 c-30 -17 -44 -33 -55 -65 -21 -61 0 -118 55 -149 49 -28 75
-29 116 -4 40 24 69 68 69 104 0 50 -35 103 -80 121 -52 21 -57 20 -105 -7z
m118 -42 c57 -54 22 -155 -55 -155 -66 0 -112 63 -88 120 26 63 94 80 143 35z"/>
</g>
</svg>
