<svg width="245" height="100" viewBox="0 0 245 100" fill="none" xmlns="http://www.w3.org/2000/svg">
<path d="M61.716 3.43098C61.716 3.4972 61.5178 4.31396 61.2535 5.26318C61.0112 6.19031 60.4605 8.24325 60.064 9.83262C59.6455 11.3999 59.0728 13.6515 58.7424 14.7994C58.434 15.9473 57.8392 18.1327 57.4428 19.6558C56.2092 24.2694 55.5925 26.5431 55.218 27.9338C54.8215 29.3466 54.3589 31.1125 53.4999 34.4458C52.8391 36.9402 51.8479 40.6929 50.9227 44.0483C50.5703 45.3727 49.8214 48.2204 49.2707 50.3395C48.72 52.4587 48.0812 54.8869 47.8389 55.7478C47.2221 57.9774 46.3411 61.2885 45.9666 62.7013C45.7904 63.3636 45.46 64.5997 45.2177 65.4606C44.9974 66.2995 44.4247 68.3745 43.9841 70.0301C43.5216 71.7078 43.081 73.0764 42.9929 73.0764C42.9048 73.0764 42.6845 72.5025 42.5083 71.8181C42.3101 71.1117 41.6933 68.9484 41.1206 67.0059C39.8871 62.7896 39.0501 59.9641 38.0588 56.5204C37.6403 55.1297 36.9354 52.7457 36.4949 51.2225C36.0544 49.6994 35.3935 47.4257 35.0411 46.1454C34.6666 44.865 34.2481 43.4302 34.0939 42.9445C33.9177 42.4589 33.5212 41.1123 33.1908 39.9645C32.8604 38.8166 32.2657 36.7636 31.8692 35.4392C31.4727 34.0926 30.4154 30.5165 29.5343 27.4923C28.6532 24.446 27.9043 21.9295 27.8602 21.8854C27.8382 21.8412 27.7281 21.8412 27.662 21.9074C27.5519 22.0178 25.6355 28.4636 24.2698 33.3421C23.6751 35.4171 23.4768 36.1456 22.2874 40.0748C21.186 43.7613 19.2476 50.3395 19.0494 51.1121C19.0053 51.355 18.785 51.9731 18.6088 52.4808L18.2784 53.4079L16.9127 53.5183C16.1858 53.5845 13.102 53.739 10.0623 53.8715C7.04455 54.0039 4.22507 54.1584 3.82858 54.2247L3.10168 54.335L3.16777 57.0281L3.23385 59.7212L13.0359 59.6329C18.4326 59.6109 22.8601 59.5447 22.9041 59.5226C22.9262 59.4784 23.8072 56.8957 24.8425 53.739C27.3756 46.1012 27.6179 45.439 27.7942 45.6376C27.8823 45.7259 28.1246 46.4544 28.3228 47.2491C28.5431 48.0438 28.9616 49.4786 29.248 50.4499C29.9528 52.834 31.0542 56.8074 31.4286 58.2864C31.6709 59.2798 33.8076 66.8293 35.1953 71.6415C35.5698 73.0102 37.9927 81.6193 39.3805 86.5419C39.9311 88.5507 40.614 90.9348 40.9003 91.8398C41.1647 92.7449 41.5832 94.2239 41.8035 95.1069C42.0237 95.9678 42.266 96.6962 42.3321 96.6962C42.3982 96.6962 42.6845 95.7691 42.9709 94.6433C43.2572 93.5396 43.6097 92.2151 43.7639 91.7294C43.9181 91.2438 44.2485 90.0959 44.4908 89.1909C45.3498 85.99 46.9798 80.0078 47.3984 78.4847C47.6407 77.6238 48.1693 75.637 48.6099 74.0697C49.0284 72.4804 49.5791 70.4937 49.7993 69.6548C50.0416 68.7939 50.6584 66.5644 51.165 64.688C52.0461 61.3548 53.6981 55.3284 54.3369 53.0989C54.7995 51.4433 57.3326 42.1057 57.4207 41.7304C57.5088 41.3552 58.0595 39.3685 61.2094 27.8676C61.3856 27.2274 61.6059 26.7638 61.716 26.8301C61.8041 26.8742 62.0024 27.3819 62.1345 27.9338C62.2667 28.4857 63.9187 34.0705 65.8131 40.3618C67.7074 46.631 69.3815 52.26 69.5357 52.8781C69.7119 53.4741 70.2846 55.3726 70.8133 57.0723L71.7604 60.1627L75.439 60.229C78.1263 60.2731 79.1175 60.2069 79.1175 60.0303C79.1175 59.8758 78.8091 58.772 78.4347 57.5359C78.0822 56.2997 77.5095 54.4675 77.2011 53.43C76.8928 52.3925 76.2099 50.1629 75.6813 48.4632C74.8002 45.5935 74.1173 43.3419 73.1702 40.0748C72.9499 39.3464 72.3331 37.2493 71.7604 35.4392C71.1877 33.607 70.4828 31.3333 70.1965 30.362C69.3595 27.5585 65.725 15.5279 65.1302 13.5853C64.5135 11.5765 62.7073 5.61637 62.3328 4.35812C62.1125 3.62965 61.716 3.03364 61.716 3.43098Z" fill="#D13F4E"/>
<path d="M160.64 35.3509C158.041 35.8586 155.53 37.6908 154.45 39.8541C153.701 41.3993 153.679 44.0262 154.428 45.4831C155.618 47.7789 157.468 48.8164 162.645 50.0967C167.292 51.2446 168.107 51.7302 168.107 53.2534C168.107 54.4675 167.777 54.9531 166.653 55.4608C164.319 56.4763 160.464 56.101 157.116 54.5116C156.102 54.026 155.243 53.6728 155.199 53.6949C154.979 53.9377 153.569 57.271 153.569 57.58C153.569 58.0656 155.309 58.9928 157.755 59.7654C160.023 60.4938 164.847 60.7146 167.116 60.1848C169.936 59.5226 172.05 57.9773 173.218 55.792C173.636 55.0193 173.724 54.5337 173.724 52.8781C173.702 51.0238 173.658 50.8031 172.997 49.7656C171.764 47.7789 169.891 46.8076 164.913 45.5935C161.389 44.7326 159.869 44.0483 159.649 43.2315C159.385 42.2381 159.517 41.5318 160.089 40.8695C161.521 39.1698 165.728 39.1256 169.605 40.7591C170.354 41.0903 171.015 41.311 171.059 41.2669C171.103 41.2227 171.499 40.2956 171.962 39.2139C172.865 37.0506 172.909 37.1831 171.235 36.4104C169.231 35.5275 166.962 35.108 164.208 35.1301C162.777 35.1522 161.169 35.2405 160.64 35.3509Z" fill="#1F59A2"/>
<path d="M197.183 35.6158C194.782 36.3442 193.307 37.2272 191.544 38.9711C188.989 41.4876 187.932 44.1145 187.932 47.8892C187.954 53.8935 191.919 58.7499 197.954 60.1848C200.135 60.6925 204.254 60.5159 206.17 59.8316C208.329 59.0811 209.497 58.3305 211.193 56.6529C213.682 54.1584 214.805 51.4433 214.805 47.8009C214.805 42.1498 211.611 37.6908 206.17 35.7703C205.069 35.3729 204.188 35.2405 201.809 35.1963C199.188 35.108 198.637 35.1743 197.183 35.6158ZM204.827 40.6488C207.756 42.0615 209.21 44.7326 209.034 48.3307C208.924 50.6706 208.219 52.2821 206.743 53.6507C204.739 55.4829 202.206 56.1672 199.562 55.5491C197.161 54.9973 195.553 53.7169 194.386 51.4433C193.813 50.3395 193.769 50.0305 193.769 47.8009C193.769 45.5714 193.813 45.2624 194.386 44.1586C196.39 40.2294 200.862 38.7283 204.827 40.6488Z" fill="#1F59A2"/>
<path d="M114.802 35.6599C114.802 35.9469 117.203 41.6201 118.568 44.556C118.921 45.3286 119.207 45.9908 119.207 46.0791C119.207 46.1454 119.89 47.7568 120.727 49.6552C121.542 51.5536 122.908 54.6662 123.723 56.5866L125.22 60.0744L128.084 60.0082L130.97 59.942L131.873 57.8449C132.379 56.697 133.855 53.2534 135.177 50.2292C136.476 47.1829 138.217 43.1653 139.054 41.2669C141.388 35.9248 141.499 35.6158 141.102 35.4612C140.904 35.395 139.736 35.3288 138.481 35.3288C136.785 35.3288 136.146 35.4171 135.97 35.6378C135.705 35.9469 133.855 40.1852 130.066 49.0813C129.163 51.2446 128.326 52.9443 128.238 52.834C128.15 52.7457 127.643 51.664 127.137 50.4499C126.608 49.2358 125.727 47.1387 125.154 45.8142C124.582 44.4677 123.392 41.6863 122.511 39.6333C121.652 37.5583 120.793 35.7703 120.595 35.6158C120.088 35.2184 114.802 35.2626 114.802 35.6599Z" fill="#1F59A2"/>
<path d="M143.811 35.4833C143.723 35.5496 143.657 41.1124 143.657 47.823V60.0303L145.926 60.0965C147.16 60.1407 148.437 60.1407 148.79 60.0965L149.384 60.0303V47.801C149.384 36.874 149.34 35.5937 149.032 35.4613C148.569 35.2847 143.988 35.2847 143.811 35.4833Z" fill="#1F59A2"/>
<path d="M177.799 47.6906V60.0523H180.663H183.526V47.823C183.526 36.874 183.482 35.5937 183.174 35.4612C182.976 35.395 181.698 35.3288 180.31 35.3288H177.799V47.6906Z" fill="#1F59A2"/>
<path d="M219.497 35.4833C219.277 35.5716 219.21 38.2426 219.21 47.823V60.0523H221.964H224.717L224.739 53.6948C224.739 50.2071 224.827 46.8738 224.893 46.2999L225.048 45.2403L225.863 46.2999C226.303 46.8738 226.92 47.6464 227.228 47.9775C227.537 48.3307 228.109 49.015 228.506 49.5227C229.277 50.494 233.528 55.6816 234.145 56.41C234.365 56.6528 235.114 57.58 235.819 58.4409L237.097 60.0523H239.497H241.898V47.823C241.898 36.874 241.854 35.5937 241.546 35.4612C241.348 35.395 240.114 35.3288 238.793 35.3288H236.392V42.7017C236.392 46.7634 236.326 50.1408 236.215 50.2071C236.127 50.2512 234.718 48.6618 233.088 46.653C231.458 44.6443 229.96 42.8341 229.783 42.6134C229.607 42.3926 228.462 41.0019 227.25 39.5009C223.66 35.086 224.012 35.3288 221.722 35.3508C220.642 35.3508 219.629 35.4171 219.497 35.4833Z" fill="#1F59A2"/>
<path d="M75.439 35.8144C75.483 35.9689 76.0998 37.8894 76.7826 40.0748C77.4655 42.2602 78.2585 44.7988 78.5669 45.7038C78.8532 46.6089 79.492 48.706 79.9986 50.3395C80.5052 51.973 81.2542 54.3571 81.6507 55.6374C82.0471 56.9178 82.5097 58.3968 82.6859 58.9486L82.9723 59.942L89.5804 60.0082C95.5718 60.0523 96.3648 60.0303 98.149 59.6109C102.488 58.6175 105.748 55.8582 107.114 51.9951C107.709 50.3395 107.907 47.1166 107.555 45.2182C106.674 40.6488 102.819 36.8961 97.9508 35.8806C95.8582 35.4392 75.2628 35.395 75.439 35.8144ZM97.4882 40.6046C99.0742 41.2448 100.55 42.5472 101.321 44.0483C101.872 45.0637 101.916 45.3507 101.916 47.8009C101.916 50.3174 101.894 50.5161 101.277 51.6198C100.44 53.143 99.0081 54.3792 97.4442 54.9973C96.3428 55.4167 95.6379 55.505 91.9814 55.5933L87.7742 55.6816L85.2191 47.9996C83.8093 43.7834 82.708 40.2293 82.7961 40.141C82.8622 40.0086 85.7257 39.9644 89.5584 40.0086C95.9023 40.0969 96.2547 40.119 97.4882 40.6046Z" fill="#D13F4E"/>
<g style="mix-blend-mode:multiply">
<path d="M71.9586 69.125C72.0467 69.412 72.5534 70.3391 73.082 71.1779C73.8309 72.392 74.0512 72.9439 74.0512 73.6724C74.0512 74.3788 74.1393 74.6216 74.3816 74.6216C74.6239 74.6216 74.712 74.3788 74.712 73.6724C74.712 72.9439 74.9764 72.3037 75.9015 70.6923C76.8707 69.0588 77.0249 68.6614 76.7165 68.6614C76.4742 68.6614 76.0337 69.2133 75.461 70.2067C74.9984 71.0455 74.5138 71.7298 74.4037 71.6857C74.2935 71.6415 73.8309 70.9793 73.3463 70.2067C72.4873 68.7497 71.6503 68.1096 71.9586 69.125Z" fill="#1F59A2"/>
</g>
<g style="mix-blend-mode:multiply">
<path d="M78.9413 69.0146C78.1043 69.4341 77.3553 70.7365 77.3553 71.7519C77.3553 73.3633 78.677 74.6216 80.3731 74.6658C83.523 74.732 84.8446 71.487 82.5538 69.3458C81.8048 68.6394 79.9986 68.4849 78.9413 69.0146ZM81.7388 69.6327C83.0163 70.295 83.2586 72.2596 82.2234 73.3192C81.0339 74.5112 78.8091 74.0256 78.3025 72.4804C77.6197 70.4274 79.8004 68.6394 81.7388 69.6327Z" fill="#1F59A2"/>
</g>
<g style="mix-blend-mode:multiply">
<path d="M85.1089 71.0676C85.175 73.1868 85.2411 73.562 85.6376 73.9594C86.2764 74.6216 87.576 74.8644 88.5452 74.5554C89.7346 74.1581 90.1311 73.1868 90.1311 70.6923C90.1311 68.8381 90.0871 68.6394 89.7567 68.7056C89.3382 68.7939 89.3161 68.8601 89.2721 71.4208C89.25 73.4075 88.8756 73.9594 87.5319 73.9594C86.1442 73.9594 85.8579 73.4517 85.7918 70.9131C85.7477 69.1471 85.6816 68.7498 85.3733 68.7056C85.0649 68.6394 85.0429 68.9043 85.1089 71.0676Z" fill="#1F59A2"/>
</g>
<g style="mix-blend-mode:multiply">
<path d="M91.8933 71.6415C91.8933 74.4671 91.9153 74.6216 92.3339 74.6216C92.7083 74.6216 92.7744 74.4671 92.7744 73.7386V72.8556H93.7436C94.6027 72.8556 94.7568 72.9439 95.3075 73.7386C95.66 74.2684 96.1005 74.6216 96.3428 74.6216C96.7393 74.6216 96.7173 74.5333 96.1005 73.6944L95.3956 72.7452L95.9463 72.3479C96.6071 71.8843 96.8715 70.7806 96.541 69.9418C96.2106 69.0588 95.2414 68.6614 93.4352 68.6614H91.8933V71.6415ZM95.3736 69.6769C95.704 69.8976 95.8582 70.2287 95.8582 70.7585C95.8582 71.7298 95.2194 72.1934 93.8317 72.1934H92.7744V70.7585V69.3237H93.8317C94.4264 69.3237 95.0873 69.4782 95.3736 69.6769Z" fill="#1F59A2"/>
</g>
<g style="mix-blend-mode:multiply">
<path d="M100.484 70.7585C100.484 73.849 100.991 74.6216 103.017 74.6216C105.021 74.6216 105.55 73.7827 105.55 70.6482C105.55 68.838 105.506 68.6394 105.176 68.7056C104.845 68.7718 104.757 69.1029 104.669 71.0455C104.537 73.6503 104.339 73.9593 102.863 73.9593C101.629 73.9593 101.343 73.3854 101.299 70.8247C101.255 69.0809 101.211 68.7718 100.88 68.7056C100.528 68.6394 100.484 68.838 100.484 70.7585Z" fill="#1F59A2"/>
</g>
<g style="mix-blend-mode:multiply">
<path d="M107.312 71.6194V74.6216H109.295C110.903 74.6216 111.277 74.5554 111.277 74.2905C111.277 74.0256 110.969 73.9593 109.735 73.9593H108.215L108.149 71.3766C108.083 69.1029 108.039 68.7718 107.709 68.7056C107.356 68.6394 107.312 68.8822 107.312 71.6194Z" fill="#1F59A2"/>
</g>
<g style="mix-blend-mode:multiply">
<path d="M111.057 68.9926C111.057 69.2354 111.321 69.3237 112.048 69.3237H113.039V71.9726C113.039 74.4671 113.061 74.6216 113.48 74.6216C113.898 74.6216 113.92 74.4671 113.92 71.9726V69.3237H114.912C115.639 69.3237 115.903 69.2354 115.903 68.9926C115.903 68.7277 115.484 68.6614 113.48 68.6614C111.475 68.6614 111.057 68.7277 111.057 68.9926Z" fill="#1F59A2"/>
</g>
<g style="mix-blend-mode:multiply">
<path d="M117.004 71.6415C117.004 74.1359 117.048 74.6216 117.335 74.6216C117.621 74.6216 117.665 74.1359 117.665 71.6415C117.665 69.1471 117.621 68.6614 117.335 68.6614C117.048 68.6614 117.004 69.1471 117.004 71.6415Z" fill="#1F59A2"/>
</g>
<g style="mix-blend-mode:multiply">
<path d="M119.648 71.6194C119.648 74.1359 119.692 74.6216 119.978 74.6216C120.242 74.6216 120.308 74.2463 120.308 72.5024C120.308 71.2883 120.397 70.4495 120.507 70.5157C120.617 70.604 121.145 71.3987 121.674 72.3037C122.203 73.2088 122.731 73.9593 122.842 73.9593C122.974 73.9593 123.502 73.1647 124.053 72.2154L125.044 70.4716L125.154 72.4803C125.242 74.1801 125.331 74.5112 125.661 74.5774C125.991 74.6437 126.035 74.4008 126.035 71.6636C126.035 69.1692 125.991 68.6614 125.705 68.6614C125.529 68.6614 124.824 69.6327 124.141 70.8027C122.687 73.253 122.974 73.2971 121.278 70.3612C119.846 67.8888 119.648 68.0433 119.648 71.6194Z" fill="#1F59A2"/>
</g>
<g style="mix-blend-mode:multiply">
<path d="M128.525 71.2442C127.005 74.7099 127.027 74.6216 127.445 74.6216C127.643 74.6216 127.974 74.2684 128.172 73.849L128.547 73.0764H130.11H131.674L132.049 73.849C132.247 74.2684 132.555 74.6216 132.754 74.6216C132.93 74.6216 133.084 74.5554 133.062 74.445C133.062 74.3567 132.489 73.0543 131.785 71.5312C130.11 67.8668 130.022 67.8447 128.525 71.2442ZM131.322 72.3479C131.322 72.5466 130.948 72.6349 130.11 72.6349C128.679 72.6349 128.635 72.5245 129.516 70.7365L130.11 69.5003L130.705 70.8027C131.036 71.5091 131.3 72.2155 131.322 72.3479Z" fill="#1F59A2"/>
</g>
<g style="mix-blend-mode:multiply">
<path d="M133.084 68.9926C133.084 69.2354 133.349 69.3237 134.075 69.3237H135.067V71.9726C135.067 74.4671 135.089 74.6216 135.507 74.6216C135.926 74.6216 135.948 74.4671 135.948 71.9726V69.3237H136.939C137.666 69.3237 137.93 69.2354 137.93 68.9926C137.93 68.7277 137.512 68.6614 135.507 68.6614C133.503 68.6614 133.084 68.7277 133.084 68.9926Z" fill="#1F59A2"/>
</g>
<g style="mix-blend-mode:multiply">
<path d="M139.031 71.6415V74.6216H141.124C142.842 74.6216 143.217 74.5554 143.217 74.2905C143.217 74.0256 142.864 73.9593 141.454 73.9593H139.692V72.966V71.9726H141.234C142.468 71.9726 142.776 71.9064 142.776 71.6415C142.776 71.3766 142.468 71.3104 141.234 71.3104H139.692V70.317V69.3237H141.454C142.864 69.3237 143.217 69.2575 143.217 68.9926C143.217 68.7277 142.842 68.6614 141.124 68.6614H139.031V71.6415Z" fill="#1F59A2"/>
</g>
<g style="mix-blend-mode:multiply">
<path d="M147.093 68.838C147.049 68.9263 147.005 70.2287 147.027 71.7519C147.071 74.1801 147.115 74.5112 147.468 74.5774C147.798 74.6437 147.842 74.4671 147.842 73.3192V71.9726H149.605H151.367V73.2971C151.367 74.4891 151.411 74.6216 151.807 74.6216C152.248 74.6216 152.248 74.5112 152.204 71.7077C152.138 69.125 152.094 68.7718 151.763 68.7056C151.411 68.6394 151.367 68.816 151.367 69.9638V71.3104H149.605H147.842V69.9859C147.842 68.9705 147.776 68.6614 147.534 68.6614C147.358 68.6614 147.16 68.7277 147.093 68.838Z" fill="#1F59A2"/>
</g>
<g style="mix-blend-mode:multiply">
<path d="M154.01 71.6415V74.6216H156.213C158.019 74.6216 158.415 74.5554 158.415 74.2905C158.415 74.0256 158.063 73.9593 156.653 73.9593H154.891V72.966V71.9947L156.367 71.9285C157.292 71.8843 157.865 71.7519 157.931 71.5753C157.997 71.3766 157.6 71.3104 156.455 71.3104H154.891V70.317V69.3237H156.543C157.865 69.3237 158.195 69.2575 158.195 68.9926C158.195 68.7277 157.821 68.6614 156.103 68.6614H154.01V71.6415Z" fill="#1F59A2"/>
</g>
<g style="mix-blend-mode:multiply">
<path d="M161.631 68.8601C161.477 69.103 159.076 74.445 159.076 74.5554C159.076 74.5995 159.23 74.6216 159.407 74.6216C159.605 74.6216 159.913 74.2684 160.111 73.849L160.486 73.0764H162.05H163.614L163.988 73.849C164.297 74.5112 165.024 74.9307 165.024 74.445C165.024 74.3567 164.451 73.0322 163.768 71.487C162.865 69.5224 162.38 68.6835 162.116 68.6615C161.918 68.6615 161.697 68.7498 161.631 68.8601ZM163.261 72.2376C163.261 72.5687 163.063 72.6349 162.05 72.6349C161.389 72.6349 160.838 72.5466 160.838 72.4362C160.838 72.3258 161.103 71.6195 161.433 70.8689L162.028 69.5003L162.623 70.6703C162.975 71.3325 163.239 72.0389 163.261 72.2376Z" fill="#1F59A2"/>
</g>
<g style="mix-blend-mode:multiply">
<path d="M166.279 68.7939C166.191 68.8822 166.125 70.2287 166.125 71.796V74.6216H168.218C169.936 74.6216 170.31 74.5554 170.31 74.2905C170.31 74.0256 169.98 73.9593 168.658 73.9593H167.028L166.962 71.3766C166.896 68.9926 166.72 68.3524 166.279 68.7939Z" fill="#1F59A2"/>
</g>
<g style="mix-blend-mode:multiply">
<path d="M169.87 68.9705C169.87 69.2133 170.178 69.3237 170.905 69.3679L171.918 69.4341L171.94 71.9727C171.962 74.2022 172.006 74.5112 172.359 74.5775C172.689 74.6437 172.733 74.4009 172.733 71.9947V69.3237H173.724C174.451 69.3237 174.715 69.2354 174.715 68.9926C174.715 68.7277 174.297 68.6615 172.292 68.6615C170.332 68.6615 169.87 68.7277 169.87 68.9705Z" fill="#1F59A2"/>
</g>
<g style="mix-blend-mode:multiply">
<path d="M175.817 71.6415C175.817 74.1359 175.861 74.6216 176.147 74.6216C176.412 74.6216 176.478 74.3346 176.478 73.2971V71.9726H178.35H180.222V73.2971C180.222 74.3346 180.288 74.6216 180.553 74.6216C180.839 74.6216 180.883 74.1359 180.883 71.6415C180.883 69.1471 180.839 68.6614 180.553 68.6614C180.288 68.6614 180.222 68.9484 180.222 69.9859V71.3325L178.416 71.2662L176.588 71.2L176.522 69.9197C176.478 68.9926 176.368 68.6614 176.147 68.6614C175.883 68.6614 175.817 69.1912 175.817 71.6415Z" fill="#1F59A2"/>
</g>
<g style="mix-blend-mode:multiply">
<path d="M185.663 69.5223C184.782 70.3391 184.738 70.4716 184.738 71.6194C184.738 73.562 185.905 74.7099 187.866 74.6657C188.967 74.6657 190.487 73.871 189.87 73.6282C189.672 73.5399 189.32 73.5841 189.055 73.7165C188.813 73.849 188.218 73.9593 187.712 73.9593C185.993 73.9593 185.046 72.3258 185.729 70.5599C186.126 69.4782 187.998 68.9705 188.989 69.6769C189.474 70.008 189.914 69.9418 189.914 69.5444C189.914 69.1471 188.615 68.6614 187.601 68.6614C186.742 68.6614 186.456 68.7718 185.663 69.5223Z" fill="#1F59A2"/>
</g>
<g style="mix-blend-mode:multiply">
<path d="M192.447 68.9705C191.434 69.4341 190.95 70.1846 190.839 71.4208C190.685 73.3192 192.007 74.6878 193.989 74.6878C195.311 74.6878 196.258 74.0918 196.787 72.9439C197.976 70.2508 195.223 67.7343 192.447 68.9705ZM195.465 69.9639C196.104 70.5378 196.192 70.7365 196.192 71.7519C196.192 72.7232 196.104 72.966 195.575 73.4296C194.584 74.2684 192.712 74.0918 191.963 73.0985C191.214 72.083 191.544 70.4054 192.646 69.7431C193.659 69.125 194.628 69.2133 195.465 69.9639Z" fill="#1F59A2"/>
</g>
<g style="mix-blend-mode:multiply">
<path d="M198.505 71.6415C198.505 74.1359 198.549 74.6216 198.835 74.6216C199.166 74.6216 199.232 74.2242 199.21 71.6857C199.188 71.1117 199.254 70.6482 199.364 70.6482C199.452 70.6482 199.959 71.3987 200.509 72.3037C201.038 73.2088 201.545 73.9593 201.633 73.9593C201.721 73.9593 201.941 73.7386 202.095 73.4516C202.272 73.1867 202.734 72.4362 203.153 71.774L203.902 70.5819L204.012 72.5466C204.1 74.1801 204.188 74.5112 204.518 74.5774C204.849 74.6437 204.893 74.4008 204.893 71.6415C204.893 67.955 204.695 67.8447 203.02 70.6923C202.404 71.7519 201.853 72.679 201.787 72.7452C201.721 72.8115 201.082 71.9285 200.377 70.7585C199.694 69.6106 198.989 68.6614 198.813 68.6614C198.571 68.6614 198.505 69.2354 198.505 71.6415Z" fill="#1F59A2"/>
</g>
<g style="mix-blend-mode:multiply">
<path d="M206.809 68.816C206.721 68.8822 206.655 70.2287 206.655 71.796C206.655 74.4671 206.677 74.6216 207.095 74.6216C207.47 74.6216 207.536 74.4671 207.536 73.7386V72.8556H208.637C210.466 72.8556 211.501 72.083 211.501 70.7585C211.501 69.3457 210.466 68.6614 208.351 68.6614C207.58 68.6614 206.875 68.7277 206.809 68.816ZM210.267 69.7872C210.818 70.3391 210.862 71.0013 210.444 71.5311C210.135 71.9285 209.739 72.0609 208.792 72.1492L207.536 72.2375V70.7585V69.2795L208.77 69.3678C209.43 69.434 210.113 69.6106 210.267 69.7872Z" fill="#1F59A2"/>
</g>
<g style="mix-blend-mode:multiply">
<path d="M213.505 70.6482C211.743 74.4671 211.677 74.6216 212.14 74.6216C212.36 74.6216 212.668 74.3125 212.889 73.849L213.263 73.0764H214.805H216.347L216.721 73.849C216.942 74.2905 217.25 74.6216 217.47 74.6216C217.801 74.6216 217.624 74.1139 216.523 71.6415C215.554 69.5003 215.069 68.6614 214.805 68.6614C214.541 68.6614 214.144 69.2795 213.505 70.6482ZM215.51 71.0676C215.818 71.796 216.016 72.4362 215.95 72.5024C215.752 72.7011 213.748 72.6569 213.615 72.4583C213.483 72.2375 214.585 69.7652 214.805 69.7652C214.893 69.7652 215.201 70.3612 215.51 71.0676Z" fill="#1F59A2"/>
</g>
<g style="mix-blend-mode:multiply">
<path d="M218.99 71.6415C218.99 74.1359 219.034 74.6216 219.321 74.6216C219.585 74.6216 219.651 74.2463 219.651 72.5245C219.651 71.3766 219.717 70.4274 219.827 70.4274C219.915 70.4495 220.422 71.0013 220.973 71.6857C222.669 73.8048 223.44 74.6216 223.748 74.6216C223.99 74.6216 224.056 74.0256 224.056 71.6415C224.056 68.838 224.034 68.6614 223.638 68.6614C223.219 68.6614 223.197 68.816 223.219 70.7585C223.241 71.9064 223.197 72.8998 223.131 72.966C223.087 73.0322 222.426 72.3037 221.678 71.3545C219.695 68.8822 219.497 68.6614 219.233 68.6614C219.078 68.6614 218.99 69.6327 218.99 71.6415Z" fill="#1F59A2"/>
</g>
<g style="mix-blend-mode:multiply">
<path d="M225.819 71.6415C225.819 74.4671 225.841 74.6216 226.259 74.6216C226.678 74.6216 226.7 74.4671 226.7 71.6415C226.7 68.816 226.678 68.6614 226.259 68.6614C225.841 68.6614 225.819 68.816 225.819 71.6415Z" fill="#1F59A2"/>
</g>
<g style="mix-blend-mode:multiply">
<path d="M229.541 69.1692C226.942 70.913 228.065 74.6216 231.215 74.6216C232.581 74.6216 233.264 74.2905 233.903 73.3192C235.731 70.5819 232.295 67.3149 229.541 69.1692ZM232.581 69.7652C233.859 70.5378 233.925 72.4362 232.713 73.4958C232.229 73.9152 231.964 73.9814 231.039 73.8931C229.695 73.7827 229.101 73.2309 228.969 71.9506C228.748 69.9197 230.797 68.6614 232.581 69.7652Z" fill="#1F59A2"/>
</g>
<g style="mix-blend-mode:multiply">
<path d="M235.819 68.9484C235.775 69.1029 235.753 70.4274 235.775 71.8623C235.841 74.158 235.885 74.5112 236.215 74.5774C236.546 74.6437 236.612 74.3788 236.656 72.4141L236.722 70.1846L238.484 72.392C239.475 73.6503 240.401 74.6216 240.621 74.6216C240.951 74.6216 240.995 74.3125 240.951 71.7077C240.907 69.125 240.863 68.7718 240.533 68.7056C240.202 68.6394 240.136 68.9043 240.092 70.891L240.026 73.1426L239.013 71.8402C238.44 71.1117 237.669 70.1846 237.295 69.7652C236.92 69.3457 236.612 68.9263 236.612 68.816C236.612 68.5511 235.951 68.6394 235.819 68.9484Z" fill="#1F59A2"/>
</g>
</svg>
