<svg width="512" height="512" viewBox="0 0 512 512" fill="none" xmlns="http://www.w3.org/2000/svg">
<g clip-path="url(#clip0_112_24)">
<path d="M105.935 106.97C107.601 94.5504 108.321 82.0476 112.825 70.05C120.386 49.9103 132.962 33.7886 150.018 21.0369C162.302 11.8528 175.966 5.58539 191.158 2.86098C191.714 2.76127 192.163 2.06107 192.331 1.32036C235.021 1 278.042 1 321.531 1C322.625 1.6647 323.154 2.77045 323.888 2.93012C347.123 7.98091 366.402 19.774 381.942 37.5513C394.992 52.4802 403.126 69.8762 405.983 89.594C406.779 95.0831 407.336 100.607 407.815 106.896C407.419 109.143 407.033 110.608 407.031 112.074C406.994 138.309 406.983 164.545 407.051 190.78C407.056 192.534 407.736 194.286 408.102 196.039C407.845 208.316 408.71 220.811 403.927 232.464C396.753 249.946 383.883 261.346 365.181 264.806C357.006 266.318 348.433 265.674 339.104 266.023C283.738 266.044 229.308 266.053 174.878 266.062C166.316 265.712 157.659 266.047 149.213 264.873C129.978 262.198 111.842 245.41 108.216 226.397C106.385 216.796 106.659 206.793 106.161 196.152C106.558 193.869 106.965 192.407 106.967 190.944C107.006 164.709 107.016 138.474 106.951 112.239C106.946 110.482 106.289 108.726 105.935 106.97ZM148.292 203.189C161.797 219.91 179.175 229.484 200.725 230.256C218.032 230.876 235.374 230.598 252.7 230.57C273.523 230.535 294.383 231.088 315.16 230.041C345.305 228.521 371.239 207.273 377.828 177.856C380.69 165.077 381.029 151.342 380.174 138.194C377.653 99.4091 348.22 72.0815 309.385 71.7541C273.566 71.4521 237.736 71.326 201.922 71.8702C168.858 72.3726 140.75 96.0387 135.106 128.516C133.023 140.509 133.536 153.061 133.848 165.332C134.201 179.196 139.535 191.56 148.292 203.189Z" fill="#3B96D2"/>
<path d="M244.469 513C243.463 512.336 243.059 511.315 242.371 511.059C224.944 504.57 216.439 491.135 213.09 473.654C211.701 466.403 210.346 459.146 209.331 451.489C212.075 451.778 214.501 452.356 216.842 453.177C237.865 460.55 259.329 462.143 281.114 457.614C289.207 455.932 297.1 453.287 305.084 451.081C302.731 462.165 301.022 473.435 297.86 484.283C294.073 497.274 284.741 505.725 272.335 510.85C271.477 511.204 270.714 511.79 269.954 512.634C261.646 513 253.291 513 244.469 513Z" fill="#464F5D"/>
<path d="M174.723 266.406C229.308 266.053 283.738 266.044 338.644 266.049C350.071 269.296 359.969 274.327 367.567 283.112C369.8 285.694 371.711 288.553 373.946 291.967C378.741 302.773 380.91 313.32 380.171 324.502C379.321 337.362 378.768 350.242 378.086 363.113C373.412 385.21 363.369 404.478 347.03 420.874C344.276 420.362 342.184 419.808 340.125 419.154C297.096 405.504 253.244 403.585 208.978 410.877C194.767 413.218 180.9 417.641 166.875 421.112C156.178 411.116 148.696 398.896 143.114 385.553C140.191 378.566 138.329 371.135 135.971 363.078C135.307 357.34 134.096 352.429 134.11 347.521C134.167 328.799 131.217 309.717 139.921 291.888C145.694 282.68 153.064 275.124 163.036 270.544C166.69 268.866 170.714 267.991 174.723 266.406ZM291.066 331.171C294.494 319.161 287.853 310.083 275.46 310.008C262.82 309.932 250.179 309.968 237.538 310.011C231.148 310.032 226.241 312.806 223.457 318.595C220.706 324.319 221.114 330.115 225.205 335.01C231.812 342.917 238.585 350.711 245.688 358.172C251.473 364.249 261.195 365.092 266.899 359.28C275.367 350.653 282.867 341.077 291.066 331.171Z" fill="#2980B9"/>
<path d="M167.036 421.404C180.9 417.641 194.768 413.218 208.978 410.877C253.244 403.585 297.096 405.504 340.125 419.154C342.184 419.808 344.276 420.362 346.738 421.037C335.808 434.468 321.474 443.608 305.398 450.917C297.1 453.287 289.207 455.932 281.115 457.614C259.329 462.143 237.865 460.55 216.843 453.177C214.501 452.356 212.075 451.778 209.296 451.078C198.955 445.053 188.806 439.338 179.147 432.886C174.67 429.895 171.15 425.471 167.036 421.404Z" fill="#285680"/>
<path d="M378.547 363.074C378.768 350.242 379.321 337.362 380.171 324.502C380.91 313.32 378.741 302.773 374.098 292.273C388.192 291.931 402.311 291.978 416.429 291.998C434.128 292.022 448.427 304.658 451.114 322.113C452.818 333.187 452.819 343.763 445.884 353.276C445.207 354.205 444.34 354.994 442.94 356.12C436.04 361.346 428.893 363.347 420.933 363.016C416.295 362.823 411.64 363.067 406.993 363.114C397.665 363.087 388.337 363.061 378.547 363.074Z" fill="#285680"/>
<path d="M443.028 428.78C450.757 434.042 456.674 440.731 459.07 449.971C465.165 473.476 450.037 494.9 425.746 495.914C407.544 496.673 393.252 485.653 389.472 467.266C386.714 453.849 390.688 438.259 407.031 429.038C418.641 423.699 429.607 423.249 440.656 428.532C441.332 428.855 442.232 428.708 443.028 428.78Z" fill="#285680"/>
<path d="M408.511 196.022C407.736 194.286 407.056 192.534 407.051 190.78C406.983 164.545 406.994 138.309 407.031 112.074C407.033 110.608 407.419 109.143 407.844 107.322C429.542 105.722 448.662 124.417 451.236 145.146C454.406 170.673 435.732 193.44 412.671 195.055C411.405 195.144 410.17 195.679 408.511 196.022Z" fill="#2980B9"/>
<path d="M443.016 428.33C442.232 428.708 441.332 428.855 440.656 428.532C429.607 423.249 418.641 423.699 407.342 428.888C406.981 407.279 406.99 385.654 406.996 363.572C411.64 363.067 416.296 362.823 420.933 363.016C428.893 363.347 436.04 361.346 442.63 356.285C442.962 380.078 442.983 403.979 443.016 428.33Z" fill="#A4A4A3"/>
<path d="M139.459 291.927C131.217 309.717 134.167 328.799 134.11 347.521C134.096 352.429 135.307 357.34 135.935 362.682C126.59 363.087 117.265 363.061 107.007 363.026C94.0181 362.726 81.482 364.896 71.0717 356.182C65.4792 351.433 62.714 345.065 62.1561 338.062C61.3772 328.286 61.8253 318.491 67.1144 309.704C73.6739 298.806 83.1831 292.369 96.0565 292.074C110.363 291.746 124.683 291.978 139.459 291.927Z" fill="#285680"/>
<path d="M107.043 428.918C128.077 441.162 131.486 469.665 114.328 485.959C93.8079 505.446 61.8781 495.568 54.4276 469.629C50.3189 455.325 55.484 439.026 71.0354 429.081C74.5002 427.955 77.2485 426.823 80.0842 425.988C89.4563 423.23 98.32 425.509 107.043 428.918Z" fill="#285680"/>
<path d="M105.489 106.982C106.289 108.726 106.946 110.482 106.951 112.239C107.016 138.474 107.006 164.709 106.967 190.943C106.965 192.407 106.558 193.869 106.121 195.688C93.9276 194.658 82.9858 191.003 74.4308 181.945C52.9901 159.244 60.9896 120.137 90.343 109.988C95.028 108.368 100.132 107.961 105.489 106.982Z" fill="#2980B9"/>
<path d="M107.025 428.457C98.3199 425.509 89.4562 423.23 80.0841 425.988C77.2484 426.823 74.5001 427.955 71.3374 428.925C70.9858 404.96 71.0085 381.022 71.0515 356.633C81.4819 364.896 94.018 362.726 106.54 363.067C107.007 384.741 107.007 406.369 107.025 428.457Z" fill="#A4A4A3"/>
<path d="M148.08 202.901C139.535 191.56 134.201 179.196 133.848 165.332C133.536 153.061 133.023 140.509 135.106 128.516C140.749 96.0387 168.858 72.3726 201.921 71.8702C237.735 71.326 273.566 71.4521 309.385 71.7541C348.22 72.0815 377.653 99.4091 380.174 138.194C381.029 151.342 380.69 165.077 377.828 177.856C371.239 207.273 345.305 228.521 315.16 230.041C294.383 231.088 273.523 230.535 252.699 230.57C235.373 230.598 218.032 230.876 200.725 230.256C179.175 229.484 161.797 219.91 148.08 202.901ZM287.5 89.1729C260.346 89.1746 233.192 89.0641 206.039 89.2097C179.256 89.3533 157.585 105.737 152.63 130.71C150.681 140.537 150.997 150.925 151.179 161.041C151.681 189.062 173.946 212.176 202.007 212.68C238.644 213.339 275.307 213.233 311.948 212.703C335.554 212.361 355.975 195.943 360.869 172.843C363.245 161.628 363.316 149.63 362.565 138.108C360.883 112.291 341.138 92.3825 315.452 89.8108C306.536 88.9181 297.488 89.3475 287.5 89.1729Z" fill="#E9EEF0"/>
<path d="M290.922 331.538C282.867 341.077 275.367 350.653 266.899 359.28C261.195 365.092 251.473 364.249 245.688 358.172C238.585 350.711 231.812 342.917 225.205 335.01C221.114 330.115 220.706 324.319 223.457 318.595C226.241 312.806 231.148 310.032 237.538 310.011C250.179 309.968 262.82 309.932 275.46 310.008C287.853 310.083 294.494 319.161 290.922 331.538Z" fill="#F30909"/>
<path d="M288 89.173C297.488 89.3475 306.536 88.9181 315.452 89.8107C341.138 92.3825 360.883 112.291 362.565 138.108C363.316 149.63 363.245 161.628 360.869 172.843C355.975 195.943 335.554 212.361 311.948 212.703C275.307 213.233 238.644 213.339 202.007 212.68C173.946 212.176 151.681 189.062 151.179 161.041C150.997 150.925 150.681 140.537 152.63 130.71C157.585 105.737 179.256 89.3532 206.039 89.2097C233.192 89.0641 260.346 89.1746 288 89.173ZM207.599 142.693C216.546 144.902 220.823 150.92 221.805 159.806C222.448 165.631 226.279 169.112 231.177 168.681C236.171 168.241 239.253 164.306 239.175 158.47C238.887 136.839 217.491 120.447 196.139 125.499C179.991 129.318 168.079 144.339 168.873 159.881C169.129 164.894 172.601 168.526 177.298 168.697C181.689 168.856 185.364 165.63 186.169 160.886C186.308 160.066 186.341 159.229 186.467 158.406C188.126 147.521 195.808 141.521 207.599 142.693ZM293.9 152.705C298.397 144.795 305.118 141.138 312.669 142.493C321.049 143.997 326.275 149.749 327.604 158.939C327.747 159.927 327.765 160.942 327.992 161.909C328.942 165.965 332.713 168.861 336.739 168.694C341.068 168.513 344.854 165.231 344.983 160.834C345.084 157.388 344.776 153.802 343.897 150.477C339.287 133.042 322.066 122.219 303.895 125.098C287.461 127.702 274.33 143.246 274.816 159.52C274.968 164.617 278.21 168.306 282.872 168.686C287.441 169.059 291.3 165.72 292.143 160.749C292.559 158.297 293.106 155.867 293.9 152.705Z" fill="#65DCB8"/>
<path d="M207.207 142.599C195.808 141.521 188.126 147.521 186.467 158.406C186.341 159.229 186.308 160.066 186.169 160.886C185.364 165.63 181.689 168.856 177.298 168.697C172.601 168.526 169.129 164.894 168.873 159.881C168.08 144.339 179.991 129.318 196.139 125.499C217.491 120.447 238.887 136.839 239.175 158.47C239.253 164.306 236.171 168.241 231.177 168.681C226.279 169.112 222.448 165.631 221.805 159.806C220.823 150.92 216.547 144.902 207.207 142.599Z" fill="#46515E"/>
<path d="M293.747 153.066C293.106 155.867 292.559 158.297 292.143 160.749C291.3 165.72 287.441 169.059 282.872 168.686C278.211 168.306 274.968 164.617 274.816 159.52C274.33 143.246 287.461 127.702 303.896 125.098C322.066 122.219 339.287 133.042 343.897 150.477C344.776 153.802 345.084 157.388 344.983 160.834C344.854 165.231 341.068 168.513 336.739 168.694C332.713 168.861 328.943 165.965 327.992 161.909C327.765 160.942 327.747 159.927 327.604 158.939C326.275 149.749 321.049 143.997 312.669 142.493C305.118 141.138 298.397 144.795 293.747 153.066Z" fill="#46515E"/>
</g>
<defs>
<clipPath id="clip0_112_24">
<rect width="512" height="512" fill="white"/>
</clipPath>
</defs>
</svg>
