<?xml version="1.0" standalone="no"?>
<!DOCTYPE svg PUBLIC "-//W3C//DTD SVG 20010904//EN"
 "http://www.w3.org/TR/2001/REC-SVG-20010904/DTD/svg10.dtd">
<svg version="1.0" xmlns="http://www.w3.org/2000/svg"
 width="128.000000pt" height="128.000000pt" viewBox="0 0 128.000000 128.000000"
 preserveAspectRatio="xMidYMid meet">

<g transform="translate(0.000000,128.000000) scale(0.100000,-0.100000)"
fill="#000000" stroke="none">
<path d="M614 1223 c-12 -2 -34 -17 -49 -33 -21 -22 -28 -39 -28 -71 0 -36 6
-48 37 -76 32 -30 36 -39 36 -82 l0 -49 -178 -4 c-151 -2 -182 -6 -205 -21
-45 -29 -67 -75 -67 -139 l0 -58 -55 0 c-46 0 -60 -4 -80 -25 -24 -23 -25 -28
-25 -169 0 -137 1 -146 23 -172 19 -22 34 -28 80 -32 l57 -4 0 -52 c0 -64 25
-113 71 -138 31 -16 65 -18 409 -18 344 0 378 2 409 18 46 25 71 74 71 138 l0
52 57 4 c46 4 61 10 80 32 22 26 23 35 23 172 0 141 -1 146 -25 169 -20 21
-34 25 -80 25 l-55 0 0 58 c0 64 -22 110 -67 139 -23 15 -54 19 -205 21 l-178
4 0 49 c0 43 4 52 36 82 31 28 37 40 37 76 0 67 -62 116 -129 104z m426 -393
c11 -11 22 -30 25 -42 3 -13 5 -155 3 -315 -3 -289 -3 -293 -26 -315 l-23 -23
-379 0 -379 0 -23 23 c-23 22 -23 26 -26 315 -2 160 0 302 3 315 3 12 14 31
25 42 19 19 35 20 400 20 365 0 381 -1 400 -20z m-880 -300 l0 -110 -34 0
c-65 0 -66 2 -66 109 0 54 3 101 7 104 3 4 26 7 50 7 l43 0 0 -110z m1058 6
c3 -111 1 -116 -60 -116 l-38 0 0 111 0 110 48 -3 47 -3 3 -99z"/>
<path d="M425 665 c-31 -30 -32 -66 -2 -101 17 -20 33 -27 57 -27 39 0 80 40
80 79 0 35 -42 74 -80 74 -19 0 -40 -9 -55 -25z m73 -53 c3 -17 -2 -22 -17
-22 -14 0 -21 6 -21 18 0 38 33 41 38 4z"/>
<path d="M745 665 c-31 -30 -32 -66 -2 -101 17 -20 33 -27 57 -27 39 0 80 40
80 79 0 35 -42 74 -80 74 -19 0 -40 -9 -55 -25z m73 -53 c3 -17 -2 -22 -17
-22 -14 0 -21 6 -21 18 0 38 33 41 38 4z"/>
<path d="M483 364 c-9 -25 17 -42 90 -60 62 -16 72 -16 133 0 71 17 94 30 94
53 0 22 -23 25 -63 8 -46 -19 -147 -19 -194 0 -45 19 -52 19 -60 -1z"/>
</g>
</svg>
